<svg fill="none" height="20" viewBox="0 0 20 20" width="20" xmlns="http://www.w3.org/2000/svg"><g fill="#fff"><path d="m15.137 3.83569c-.6165 0-1.1302.5137-1.1302 1.13014s.5137 1.13014 1.1302 1.13014c.6164 0 1.1301-.5137 1.1301-1.13014s-.5137-1.13014-1.1301-1.13014z"/><path d="m10.1029 5.27393c-2.67127 0-4.72607 2.15753-4.72607 4.72602 0 2.67125 2.15754 4.72605 4.72607 4.72605 2.6712 0 4.726-2.1576 4.726-4.72605 0-2.56849-2.0548-4.72602-4.726-4.72602zm0 7.80817c-1.64388 0-3.08223-1.3356-3.08223-3.08215 0-1.74657 1.33562-3.08219 3.08223-3.08219 1.6438 0 3.0822 1.33562 3.0822 3.08219 0 1.74655-1.4384 3.08215-3.0822 3.08215z"/><path d="m13.9042 19.6576h-7.70546c-3.18494 0-5.753428-2.5685-5.753428-5.7534v-7.70546c0-3.18493 2.568488-5.753428 5.753428-5.753428h7.70546c3.1849 0 5.7534 2.568498 5.7534 5.753428v7.70546c0 3.1849-2.5685 5.7534-5.7534 5.7534zm-7.70546-17.46571c-2.15754 0-4.00685 1.74657-4.00685 4.00685v7.70546c0 2.1576 1.74657 4.0069 4.00685 4.0069h7.70546c2.1575 0 4.0069-1.7466 4.0069-4.0069v-7.70546c0-2.15754-1.7466-4.00685-4.0069-4.00685z"/></g></svg>